<svg width="24" height="24" viewBox="0 0 24 24" fill="none" xmlns="http://www.w3.org/2000/svg">
<g clip-path="url(#clip0)">
<path d="M18.8224 13.6282C17.5212 11.5308 15.6611 10.528 14.1665 9.72208C13.689 9.46466 13.2631 9.23475 12.9194 9.00283C13.0119 8.8487 13.0608 8.67237 13.061 8.49263C13.061 8.25339 12.9732 8.02189 12.8161 7.83856C13.3375 7.5553 13.6671 7.01904 13.6671 6.43504C13.6671 5.85103 13.3375 5.31471 12.8162 5.03118C12.9732 4.84798 13.061 4.61634 13.061 4.37662C13.061 4.00746 12.8593 3.67223 12.531 3.4889L12.1029 0.0906688C12.0996 0.0656835 12.0874 0.0427367 12.0684 0.0261134C12.0495 0.0094902 12.0252 0.000327236 12 0.000335699C11.9748 0.000344163 11.9504 0.00952347 11.9315 0.0261594C11.9126 0.0427954 11.9004 0.0657505 11.8971 0.0907379L11.4689 3.48896C11.1406 3.6723 10.939 4.00753 10.939 4.37668C10.939 4.61655 11.0268 4.84819 11.1836 5.03124C10.6622 5.31471 10.3327 5.8511 10.3327 6.43511C10.3327 7.01918 10.6622 7.55537 11.1836 7.83863C11.0267 8.02182 10.939 8.25325 10.939 8.4927C10.939 8.67846 10.991 8.85239 11.0806 9.0029C10.7369 9.23482 10.311 9.46473 9.83352 9.72215C8.33886 10.528 6.47877 11.5309 5.1776 13.6283C3.6367 16.1121 3.28046 19.4954 4.08844 23.9717L4.09355 24.0001H19.9064L19.9115 23.9717C20.7195 19.4954 20.3633 16.112 18.8224 13.6282ZM9.24524 13.8219C9.58817 13.4783 9.98847 13.1972 10.4281 12.9914C9.70575 14.5369 9.98258 16.4337 11.2586 17.7096C12.5346 18.9858 14.4313 19.2625 15.9769 18.5401C15.7712 18.9799 15.4901 19.3803 15.1464 19.7231C13.5169 21.3528 10.8747 21.3528 9.24517 19.7231C7.61561 18.0936 7.61561 15.4515 9.24524 13.8219ZM12.1265 14.9326C12.763 15.5689 13.3994 15.5689 14.0358 14.9326C13.3994 15.5689 13.3994 16.2054 14.0358 16.8419C13.3994 16.2054 12.763 16.2054 12.1265 16.8419C12.7629 16.2054 12.7629 15.5689 12.1265 14.9326Z" fill="#672CBC"/>
</g>
<defs>
<clipPath id="clip0">
<rect width="24" height="24" fill="white"/>
</clipPath>
</defs>
</svg>
