<svg width="24" height="24" viewBox="0 0 24 24" fill="none" xmlns="http://www.w3.org/2000/svg">
<g clip-path="url(#clip0)">
<path d="M15.8075 4.11008H6.96323C6.85498 4.99404 6.30836 5.75568 5.49991 6.14085V19.908C6.04823 20.1691 6.47548 20.6037 6.72783 21.132C6.84947 21.3863 6.92894 21.6587 6.96315 21.9386H15.8075C15.8418 21.6587 15.9213 21.3863 16.0429 21.132C16.2953 20.6037 16.7226 20.1691 17.2708 19.908V6.14077C16.4625 5.75568 15.9159 4.99404 15.8075 4.11008ZM10.6819 5.02188C10.7456 4.97852 10.8166 4.94703 10.8915 4.92895C10.9521 4.85997 11.0182 4.80383 11.089 4.76152C11.2324 4.58795 11.3853 4.48841 11.3853 4.48841C11.3853 4.48841 11.5383 4.58787 11.6817 4.76152C11.7526 4.80383 11.8188 4.86005 11.8793 4.92895C11.9542 4.9473 12.0248 4.97787 12.089 5.02188C12.3395 5.19367 12.4344 5.52775 12.3728 5.89325C12.4109 5.94154 12.4318 5.99341 12.4318 6.04753C12.4318 6.10174 12.4109 6.15337 12.3728 6.20167C12.4344 6.56716 12.3394 6.90109 12.089 7.07295C12.0254 7.11658 11.9544 7.14808 11.8793 7.16588C11.8188 7.23478 11.7526 7.29124 11.6817 7.33331C11.5383 7.50704 11.3855 7.6065 11.3855 7.6065C11.3855 7.6065 11.2324 7.50712 11.089 7.33331C11.0182 7.29124 10.9521 7.23471 10.8915 7.16588C10.8165 7.14805 10.7455 7.11655 10.6819 7.07295C10.4314 6.90109 10.3364 6.56716 10.3981 6.20167C10.36 6.15337 10.3392 6.10174 10.3392 6.04753C10.3392 5.99341 10.36 5.94154 10.3981 5.89325C10.3364 5.52775 10.4314 5.19367 10.6819 5.02188ZM9.1402 9.75128C9.3455 9.61045 9.57087 9.51293 9.80945 9.45531C10.0023 9.23523 10.2137 9.05474 10.4389 8.92067C10.8976 8.36581 11.3853 8.04884 11.3853 8.04884C11.3853 8.04884 11.873 8.36581 12.3318 8.92051C12.557 9.05466 12.7684 9.23523 12.9614 9.45531C13.2001 9.51285 13.4254 9.61045 13.6306 9.75128C14.4299 10.2995 14.733 11.3657 14.5364 12.5322C14.658 12.6861 14.7243 12.8516 14.7243 13.0244C14.7243 13.197 14.6579 13.3626 14.5364 13.5166C14.733 14.683 14.43 15.7492 13.6306 16.2974C13.4253 16.4382 13.2001 16.5358 12.9614 16.5934C12.7685 16.8135 12.5571 16.994 12.3318 17.1281C11.8731 17.6828 11.3855 17.9997 11.3855 17.9997C11.3855 17.9997 10.8977 17.6829 10.4389 17.1281C10.2136 16.9941 10.0023 16.8135 9.80937 16.5934C9.57071 16.5359 9.34542 16.4382 9.14012 16.2974C8.34092 15.7492 8.03787 14.683 8.23446 13.5166C8.11291 13.3625 8.04643 13.197 8.04643 13.0244C8.04643 12.8516 8.11291 12.6861 8.23446 12.5322C8.03787 11.3656 8.341 10.2995 9.1402 9.75128ZM11.6817 21.2871C11.5384 21.4607 11.3856 21.5602 11.3856 21.5602C11.3856 21.5602 11.2325 21.4607 11.0891 21.2871C11.0226 21.2474 10.9606 21.195 10.9031 21.1319C10.8993 21.1277 10.8953 21.1239 10.8916 21.1197C10.8167 21.1017 10.7456 21.0702 10.682 21.0268C10.4315 20.855 10.3365 20.5208 10.3981 20.1554C10.36 20.1071 10.3393 20.0553 10.3393 20.0011C10.3393 19.9469 10.36 19.8953 10.3981 19.8468C10.3365 19.4816 10.4315 19.1476 10.682 18.9756C10.7456 18.9321 10.8166 18.9006 10.8916 18.8827C10.9522 18.8138 11.0182 18.7574 11.0891 18.7153C11.2325 18.5416 11.3854 18.4422 11.3854 18.4422C11.3854 18.4422 11.5384 18.5415 11.6817 18.7153C11.7527 18.7574 11.8188 18.8139 11.8794 18.8827C11.9544 18.9006 12.0255 18.9321 12.0891 18.9756C12.3396 19.1476 12.4345 19.4816 12.3729 19.8468C12.411 19.8953 12.4319 19.9469 12.4319 20.0011C12.4319 20.0553 12.411 20.1071 12.3729 20.1554C12.4345 20.5208 12.3395 20.855 12.0891 21.0268C12.0254 21.0702 11.9544 21.1017 11.8794 21.1197C11.8757 21.124 11.8717 21.1278 11.8679 21.1319C11.8104 21.1951 11.7482 21.2475 11.6817 21.2871Z" fill="#672CBC"/>
<path d="M20.9431 2.01659e-09H4.4227C4.35627 -6.5892e-06 4.29084 0.0161445 4.23204 0.0470605C4.17324 0.0779766 4.12285 0.12273 4.0852 0.177462L2.71948 2.16204C2.66485 2.2417 2.64014 2.33811 2.64972 2.43422C2.64925 2.44239 2.64731 2.45017 2.64731 2.45849V23.5904C2.64731 23.6991 2.69048 23.8033 2.76732 23.8801C2.84416 23.957 2.94838 24.0002 3.05706 24.0002H19.7139C19.7678 24.0002 19.821 23.9896 19.8708 23.969C19.9205 23.9484 19.9657 23.9182 20.0037 23.8802C20.0418 23.8421 20.0719 23.7969 20.0925 23.7472C20.1131 23.6975 20.1237 23.6442 20.1237 23.5904V21.9515H20.9432C20.997 21.9515 21.0503 21.9409 21.1 21.9203C21.1497 21.8997 21.1949 21.8696 21.2329 21.8315C21.271 21.7935 21.3012 21.7483 21.3217 21.6986C21.3423 21.6489 21.3529 21.5956 21.3529 21.5418V0.409748C21.3529 0.301075 21.3097 0.196866 21.2329 0.12003C21.156 0.0431945 21.0518 2.06113e-05 20.9431 2.01659e-09ZM17.88 20.1085C17.88 20.1702 17.8613 20.2304 17.8263 20.2812C17.7914 20.332 17.7418 20.371 17.6842 20.393C17.2918 20.5428 16.969 20.8036 16.7445 21.1319C16.5769 21.3775 16.4664 21.6575 16.4212 21.9513C16.406 22.0487 16.398 22.1471 16.397 22.2456C16.3963 22.3259 16.3639 22.4027 16.3069 22.4593C16.2498 22.5158 16.1728 22.5476 16.0925 22.5476H6.67838C6.59805 22.5476 6.52098 22.5158 6.46394 22.4593C6.40691 22.4027 6.37452 22.3259 6.37385 22.2456C6.37291 22.1471 6.36486 22.0487 6.34974 21.9513C6.30464 21.6574 6.19414 21.3774 6.02639 21.1319C5.80196 20.8036 5.47915 20.5428 5.08674 20.393C5.02912 20.371 4.97954 20.332 4.94455 20.2812C4.90957 20.2304 4.89085 20.1702 4.89085 20.1085V5.94022C4.89084 5.87855 4.90956 5.81833 4.94452 5.76753C4.97949 5.71674 5.02906 5.67776 5.08667 5.65575C5.8616 5.35962 6.36685 4.63235 6.37385 3.80298C6.37452 3.72266 6.40691 3.64586 6.46394 3.5893C6.52098 3.53274 6.59805 3.50101 6.67838 3.50102H16.0925C16.1728 3.50101 16.2498 3.53273 16.3069 3.58927C16.3639 3.64581 16.3963 3.7226 16.397 3.8029C16.4041 4.63243 16.9093 5.3597 17.6842 5.65575C17.7418 5.67775 17.7914 5.71673 17.8263 5.76752C17.8613 5.81832 17.88 5.87855 17.88 5.94022V20.1085ZM20.5334 21.1319H20.1236V2.45833C20.1236 2.40452 20.113 2.35123 20.0924 2.30152C20.0719 2.2518 20.0417 2.20662 20.0036 2.16857C19.9656 2.13052 19.9204 2.10034 19.8707 2.07975C19.821 2.05917 19.7677 2.04857 19.7139 2.04858H5.01878L5.86471 0.81934H20.5334V21.1319Z" fill="#672CBC"/>
</g>
<defs>
<clipPath id="clip0">
<rect width="24" height="24" fill="white"/>
</clipPath>
</defs>
</svg>
